<svg width="22" height="22" viewBox="0 0 22 22" fill="none" xmlns="http://www.w3.org/2000/svg">
<g clip-path="url(#clip0)">
<path d="M19.8432 7.78039C19.8031 6.87127 19.6561 6.24625 19.4455 5.70467C19.2282 5.1298 18.894 4.61511 18.4561 4.18725C18.0282 3.75274 17.5102 3.4151 16.9419 3.20123C16.3972 2.99063 15.7755 2.84361 14.8664 2.80353C13.9505 2.76005 13.6597 2.75 11.3367 2.75C9.01369 2.75 8.72292 2.76005 7.81041 2.80014C6.90129 2.84022 6.27628 2.98737 5.73483 3.19784C5.15982 3.4151 4.64514 3.74934 4.21728 4.18725C3.78276 4.61511 3.44525 5.13319 3.23126 5.70141C3.02066 6.24625 2.87364 6.86787 2.83356 7.77699C2.79008 8.6929 2.78003 8.98367 2.78003 11.3067C2.78003 13.6297 2.79008 13.9204 2.83017 14.833C2.87025 15.7421 3.0174 16.3671 3.228 16.9087C3.44525 17.4835 3.78276 17.9982 4.21728 18.4261C4.64514 18.8606 5.16322 19.1982 5.73143 19.4121C6.27628 19.6227 6.89789 19.7697 7.80714 19.8098C8.71953 19.85 9.01042 19.8599 11.3334 19.8599C13.6564 19.8599 13.9472 19.85 14.8597 19.8098C15.7688 19.7697 16.3938 19.6227 16.9353 19.4121C18.0852 18.9675 18.9943 18.0584 19.4388 16.9087C19.6493 16.3638 19.7965 15.7421 19.8365 14.833C19.8766 13.9204 19.8867 13.6297 19.8867 11.3067C19.8867 8.98367 19.8833 8.6929 19.8432 7.78039ZM18.3024 14.7661C18.2656 15.6017 18.1252 16.053 18.0083 16.3538C17.7208 17.0992 17.1292 17.6908 16.3838 17.9783C16.083 18.0952 15.6285 18.2356 14.7961 18.2723C13.8937 18.3125 13.623 18.3224 11.3401 18.3224C9.05717 18.3224 8.78311 18.3125 7.88392 18.2723C7.0483 18.2356 6.59707 18.0952 6.29625 17.9783C5.92532 17.8412 5.58768 17.6239 5.31363 17.3398C5.02952 17.0623 4.81226 16.7281 4.67517 16.3572C4.55818 16.0563 4.41783 15.6017 4.38114 14.7695C4.34092 13.867 4.331 13.5963 4.331 11.3133C4.331 9.03041 4.34092 8.75636 4.38114 7.85729C4.41783 7.02168 4.55818 6.57045 4.67517 6.26963C4.81226 5.89856 5.02952 5.56105 5.31702 5.28687C5.59434 5.00276 5.92859 4.7855 6.29965 4.64854C6.60047 4.53155 7.05509 4.3912 7.88731 4.35438C8.78977 4.31429 9.06056 4.30424 11.3433 4.30424C13.6297 4.30424 13.9003 4.31429 14.7995 4.35438C15.6351 4.3912 16.0864 4.53155 16.3872 4.64854C16.7581 4.7855 17.0957 5.00276 17.3698 5.28687C17.6539 5.56432 17.8712 5.89856 18.0083 6.26963C18.1252 6.57045 18.2656 7.02494 18.3024 7.85729C18.3425 8.75975 18.3526 9.03041 18.3526 11.3133C18.3526 13.5963 18.3425 13.8636 18.3024 14.7661Z" fill="#224D8D"/>
<path d="M11.3367 6.91138C8.91019 6.91138 6.94141 8.88003 6.94141 11.3067C6.94141 13.7334 8.91019 15.702 11.3367 15.702C13.7634 15.702 15.732 13.7334 15.732 11.3067C15.732 8.88003 13.7634 6.91138 11.3367 6.91138ZM11.3367 14.1578C9.76251 14.1578 8.48559 12.881 8.48559 11.3067C8.48559 9.73235 9.76251 8.45556 11.3367 8.45556C12.9111 8.45556 14.1879 9.73235 14.1879 11.3067C14.1879 12.881 12.9111 14.1578 11.3367 14.1578Z" fill="#224D8D"/>
<path d="M16.932 6.73754C16.932 7.30419 16.4725 7.76365 15.9058 7.76365C15.3391 7.76365 14.8796 7.30419 14.8796 6.73754C14.8796 6.17075 15.3391 5.71143 15.9058 5.71143C16.4725 5.71143 16.932 6.17075 16.932 6.73754Z" fill="#224D8D"/>
</g>
<defs>
<clipPath id="clip0">
<rect width="17.11" height="17.11" fill="white" transform="translate(2.75 2.75)"/>
</clipPath>
</defs>
</svg>
