<svg width="22" height="22" viewBox="0 0 22 22" fill="none" xmlns="http://www.w3.org/2000/svg">
<g clip-path="url(#clip0)">
<path d="M19.5512 19.5554V19.5547H19.5555V13.2792C19.5555 10.2091 18.8946 7.84424 15.3055 7.84424C13.5801 7.84424 12.4223 8.79106 11.9496 9.68868H11.8997V8.13085H8.4967V19.5547H12.0401V13.898C12.0401 12.4086 12.3225 10.9685 14.1669 10.9685C15.9842 10.9685 16.0113 12.6682 16.0113 13.9936V19.5554H19.5512Z" fill="#224D8D"/>
<path d="M2.72668 8.13159H6.27439V19.5554H2.72668V8.13159Z" fill="#224D8D"/>
<path d="M4.4991 2.44434C3.36477 2.44434 2.44434 3.36477 2.44434 4.4991C2.44434 5.63342 3.36477 6.5731 4.4991 6.5731C5.63342 6.5731 6.55385 5.63342 6.55385 4.4991C6.55314 3.36477 5.63271 2.44434 4.4991 2.44434V2.44434Z" fill="#224D8D"/>
</g>
<defs>
<clipPath id="clip0">
<rect width="17.1111" height="17.1111" fill="white" transform="translate(2.44434 2.44434)"/>
</clipPath>
</defs>
</svg>
