<svg width="252" height="252" viewBox="0 0 252 252" fill="none" xmlns="http://www.w3.org/2000/svg">
<path d="M46.6905 159.839L39.2112 159.98L35.4261 160.04C34.1611 160.04 32.9061 160.04 31.6209 160.04H31.3992V159.813V153.448V153.216H31.6512L39.186 153.251C41.706 153.251 44.226 153.307 46.746 153.332H46.882V153.468C46.882 154.547 46.8367 155.62 46.8165 156.683L46.6905 159.839ZM46.6905 159.839L46.6149 156.628C46.6149 155.57 46.5595 154.516 46.5494 153.473L46.6905 153.609C44.1705 153.639 41.6505 153.69 39.1305 153.695L31.6209 153.72L31.8729 153.468L31.8477 159.833L31.6209 159.612C32.8658 159.612 34.1056 159.612 35.3505 159.637L39.0952 159.697L46.6905 159.839Z" fill="#EBEBEB"/>
<path d="M38.304 167.867L30.8296 168.008L27.0396 168.069C25.7745 168.069 24.5196 168.069 23.2344 168.069H23.0126V167.842L22.9824 161.476V161.224H23.2344L30.744 161.28C33.264 161.28 35.784 161.34 38.2788 161.366H38.4148V161.502C38.4148 162.58 38.3745 163.654 38.3493 164.717L38.304 167.867ZM38.304 167.867L38.2334 164.657C38.2334 163.598 38.178 162.545 38.1679 161.502L38.304 161.638C35.784 161.668 33.264 161.718 30.7692 161.723L23.2344 161.754L23.4864 161.502L23.4612 167.867L23.2344 167.645C24.4792 167.645 25.7191 167.645 26.964 167.671L30.7137 167.731L38.304 167.867Z" fill="#EBEBEB"/>
<path d="M38.304 30.0938L30.8095 30.24L27.0194 30.2954C25.7544 30.2954 24.4994 30.2954 23.2142 30.3256H22.9925V30.0988L22.9622 23.7333V23.4813H23.2142L30.744 23.5065C33.264 23.5065 35.784 23.567 38.2788 23.5922H38.4149V23.7283C38.4149 24.8068 38.3745 25.8804 38.3493 26.9438L38.304 30.0938ZM38.304 30.0938L38.2334 26.8833C38.2334 25.8249 38.178 24.7716 38.1679 23.7283L38.304 23.8644C35.784 23.8644 33.264 23.945 30.7692 23.95L23.2344 23.9803L23.4864 23.7283L23.4612 30.0938L23.2344 29.872C24.4793 29.872 25.7191 29.872 26.964 29.872L30.7137 29.9325L38.304 30.0938Z" fill="#EBEBEB"/>
<path d="M228.786 30.0938L221.306 30.24L217.521 30.2954C216.256 30.2954 215.001 30.2954 213.716 30.3256H213.494V30.0988V23.7333V23.4813H213.746L221.281 23.5116C223.801 23.5116 226.321 23.572 228.816 23.5972H228.952V23.7333C228.952 24.8119 228.907 25.8854 228.887 26.9488L228.786 30.0938ZM228.786 30.0938L228.71 26.8833C228.71 25.8249 228.655 24.7716 228.645 23.7283L228.786 23.8644C226.266 23.8644 223.746 23.945 221.251 23.95L213.696 23.9803L213.948 23.7283L213.923 30.0938L213.696 29.872C214.941 29.872 216.181 29.872 217.426 29.872L221.17 29.9325L228.786 30.0938Z" fill="#EBEBEB"/>
<path d="M220.379 38.1226L212.905 38.2637L209.115 38.3191C207.85 38.3191 206.595 38.3191 205.309 38.3494H205.088V38.1226L205.057 31.752V31.5H205.309L212.844 31.5302C215.364 31.5302 217.884 31.5907 220.379 31.6159H220.52V31.752C220.52 32.8306 220.48 33.9041 220.455 34.9675L220.379 38.1226ZM220.379 38.1226L220.308 34.9121C220.283 33.8486 220.253 32.8003 220.243 31.757L220.379 31.8931C217.859 31.8931 215.339 31.9738 212.844 31.9788L205.309 32.009L205.561 31.757L205.536 38.1226L205.309 37.9008C206.554 37.9008 207.794 37.9008 209.039 37.9008L212.789 37.9613L220.379 38.1226Z" fill="#EBEBEB"/>
<path d="M181.788 112.614L174.313 112.755L170.523 112.81C169.258 112.81 168.003 112.81 166.723 112.81H166.496V112.584L166.471 106.213V105.961H166.728L174.258 105.996C176.778 105.996 179.298 106.052 181.793 106.077H181.944V106.213C181.944 107.291 181.904 108.365 181.878 109.428L181.788 112.614ZM181.788 112.614L181.717 109.398C181.692 108.34 181.662 107.291 181.652 106.243L181.788 106.384C179.268 106.384 176.748 106.465 174.253 106.465L166.723 106.495L166.97 106.243L166.945 112.614L166.723 112.387C167.963 112.387 169.203 112.387 170.448 112.417L174.198 112.473L181.788 112.614Z" fill="#EBEBEB"/>
<path d="M173.376 120.642L165.902 120.784L162.117 120.839C160.852 120.864 159.597 120.839 158.311 120.864H158.085V120.637L158.059 114.267V114.015H158.311L165.846 114.05C168.366 114.05 170.886 114.106 173.376 114.131H173.517V114.267C173.517 115.345 173.472 116.419 173.452 117.482L173.376 120.642ZM173.376 120.642L173.305 117.427C173.305 116.369 173.25 115.32 173.24 114.272L173.376 114.413C170.856 114.438 168.336 114.494 165.846 114.494L158.311 114.524L158.563 114.272L158.533 120.642L158.311 120.416C159.551 120.416 160.796 120.416 162.041 120.446L165.786 120.501L173.376 120.642Z" fill="#EBEBEB"/>
<path d="M165.01 112.614L157.535 112.755L153.75 112.81C152.48 112.81 151.23 112.81 149.945 112.81H149.718V112.583L149.688 106.243V105.991H149.945L157.475 106.026C159.995 106.026 162.515 106.082 165.01 106.107H165.151V106.243C165.151 107.322 165.105 108.395 165.08 109.459L165.01 112.614ZM165.01 112.614L164.939 109.398C164.939 108.34 164.884 107.291 164.874 106.243L165.01 106.384C162.49 106.384 159.97 106.465 157.475 106.465L149.945 106.495L150.197 106.243L150.192 112.614L149.97 112.387C151.21 112.387 152.45 112.387 153.7 112.417L157.445 112.473L165.01 112.614Z" fill="#EBEBEB"/>
<path d="M228.786 167.867L221.306 168.008L217.521 168.069C216.256 168.069 215.001 168.069 213.716 168.069H213.494V167.842V161.476V161.224H213.746L221.256 161.28C223.776 161.28 226.296 161.34 228.791 161.366H228.927V161.502C228.927 162.58 228.882 163.654 228.861 164.717L228.786 167.867ZM228.786 167.867L228.71 164.657C228.71 163.598 228.655 162.545 228.645 161.502L228.786 161.638C226.266 161.668 223.746 161.718 221.251 161.723L213.716 161.754L213.968 161.502L213.943 167.867L213.716 167.645C214.961 167.645 216.201 167.645 217.446 167.671L221.191 167.731L228.786 167.867Z" fill="#EBEBEB"/>
<path d="M100.765 49.0291L93.2853 49.1702L89.5003 49.2256C88.2352 49.2256 86.9803 49.2256 85.6951 49.2559H85.4733V49.0291L85.4481 42.6636V42.4116H85.7001L93.2349 42.4418C95.7549 42.4418 98.2749 42.4972 100.795 42.5275H100.931V42.6636C100.931 43.7421 100.886 44.8156 100.866 45.874L100.765 49.0291ZM100.765 49.0291L100.689 45.8186C100.689 44.7552 100.634 43.7068 100.624 42.6636L100.765 42.7996C98.2447 42.7996 95.7247 42.8803 93.2047 42.8803L85.68 42.9156L85.932 42.6636L85.9068 49.0291L85.68 48.8073C86.9248 48.8073 88.1647 48.8073 89.4096 48.8073L93.1543 48.8628L100.765 49.0291Z" fill="#EBEBEB"/>
<path d="M21.8585 202.774L47.8951 202.648L73.9317 202.608L126 202.522L178.068 202.603L204.105 202.648L230.141 202.774L204.105 202.895L178.068 202.941L126 203.021L73.9317 202.941L47.8951 202.895L21.8585 202.774Z" fill="#263238"/>
<path d="M90.1757 233.564C122.214 233.564 148.186 229.457 148.186 224.391C148.186 219.325 122.214 215.218 90.1757 215.218C58.1374 215.218 32.1653 219.325 32.1653 224.391C32.1653 229.457 58.1374 233.564 90.1757 233.564Z" fill="#EBEBEB"/>
<path d="M213.465 202.775H136.816C136.816 192.403 132.905 139.729 175.12 139.729C217.335 139.729 213.465 192.403 213.465 202.775Z" fill="#C7C7C7"/>
<path d="M189.62 142.289C188.36 142.178 187.044 142.118 185.684 142.118C145.056 142.118 148.816 192.795 148.816 202.774H136.811C136.811 192.402 132.905 139.729 175.115 139.729C180.069 139.648 184.993 140.517 189.62 142.289V142.289Z" fill="#A6A6A6"/>
<path d="M62.496 119.892V102.917H29.232V89.3642L67.3949 40.3805H77.7571V89.2685H87.7817V102.917H77.7571V119.892H62.496ZM44.4982 89.2483H64.2046V63.504L44.4982 89.2483Z" fill="#263238"/>
<path d="M197.477 119.892V102.917H164.213V89.3642L202.371 40.3805H212.738V89.2685H222.768V102.917H212.743V119.892H197.477ZM179.479 89.2483H199.186V63.504L179.479 89.2483Z" fill="#263238"/>
<path d="M107.528 45.5465C112.231 42.9761 116.429 43.8732 119.282 43.8329C122.134 43.7926 127.925 39.8463 131.252 40.441C134.578 41.0357 150.887 48.888 153.468 52.416C156.048 55.944 160.343 64.8799 160.746 66.6843C161.149 68.4886 160.091 78.6795 160.584 81.013C161.078 83.3465 159.476 87.1467 158.478 88.7796C157.48 90.4126 155.076 96.5261 154.481 97.64C153.886 98.7538 138.6 110.835 133.248 111.596C127.895 112.357 125.814 110.84 125.229 110.507C124.644 110.174 126.408 106.369 123.631 105.467C120.854 104.565 119.816 104.111 119.816 104.111C119.816 104.111 119.03 101.778 117.568 101.228C116.106 100.679 114.04 102.236 114.04 102.236C114.04 102.236 113.415 102.584 112.2 102.025C110.986 101.465 109.282 102.216 109.282 102.216C108.869 101.461 108.19 100.887 107.377 100.603C105.961 100.099 104.303 103.093 104.303 103.093C104.303 103.093 95.0443 95.3518 94.5353 93.4517C94.0262 91.5516 94.0313 89.0266 93.3206 86.6729C92.61 84.3192 91.1635 83.2155 91.1383 79.2641C91.1131 75.3128 91.9548 66.9665 92.993 64.9858C94.0313 63.0051 94.9385 60.223 95.5886 59.3511C96.2388 58.4791 102.665 48.2026 107.528 45.5465Z" fill="#224D8D"/>
<g opacity="0.3">
<path opacity="0.3" d="M107.528 45.5465C112.231 42.9761 116.429 43.8732 119.282 43.8329C122.134 43.7926 127.925 39.8463 131.252 40.441C134.578 41.0357 150.887 48.888 153.468 52.416C156.048 55.944 160.343 64.8799 160.746 66.6843C161.149 68.4886 160.091 78.6795 160.584 81.013C161.078 83.3465 159.476 87.1467 158.478 88.7796C157.48 90.4126 155.076 96.5261 154.481 97.64C153.886 98.7538 138.6 110.835 133.248 111.596C127.895 112.357 125.814 110.84 125.229 110.507C124.644 110.174 126.408 106.369 123.631 105.467C120.854 104.565 119.816 104.111 119.816 104.111C119.816 104.111 119.03 101.778 117.568 101.228C116.106 100.679 114.04 102.236 114.04 102.236C114.04 102.236 113.415 102.584 112.2 102.025C110.986 101.465 109.282 102.216 109.282 102.216C108.869 101.461 108.19 100.887 107.377 100.603C105.961 100.099 104.303 103.093 104.303 103.093C104.303 103.093 95.0443 95.3518 94.5353 93.4517C94.0262 91.5516 94.0313 89.0266 93.3206 86.6729C92.61 84.3192 91.1635 83.2155 91.1383 79.2641C91.1131 75.3128 91.9548 66.9665 92.993 64.9858C94.0313 63.0051 94.9385 60.223 95.5886 59.3511C96.2388 58.4791 102.665 48.2026 107.528 45.5465Z" fill="white"/>
</g>
<path d="M139.104 96.5816C139.88 95.634 141.861 95.4778 142.093 96.4959C142.325 97.514 141.795 98.6883 140.45 98.658C139.104 98.6278 138.802 96.9646 139.104 96.5816Z" fill="#224D8D"/>
<path opacity="0.1" d="M140.298 98.6429C139.094 98.4917 138.817 96.9495 139.119 96.5816C139.355 96.3272 139.643 96.1259 139.962 95.9912C140.282 95.8565 140.627 95.7915 140.974 95.8004C140.626 95.9264 139.789 96.3548 139.663 96.8739C139.537 97.393 139.497 98.2801 140.298 98.6429Z" fill="black"/>
<path d="M96.768 76.1645C98.0986 73.5588 102.468 74.9347 102.856 77.2834C103.244 79.632 100.906 81.3154 99.2275 81.1944C97.5492 81.0734 95.3215 79.0171 96.768 76.1645Z" fill="#224D8D"/>
<path d="M145.207 79.4607C143.116 78.8055 137.859 80.1511 136.791 84.672C136.181 87.2525 139.492 92.6352 142.884 92.9275C146.276 93.2199 148.786 89.6969 149.542 86.809C150.298 83.9211 148.413 80.4636 145.207 79.4607Z" fill="#224D8D"/>
<path opacity="0.1" d="M143.695 92.9225C143.426 92.9503 143.154 92.9503 142.884 92.9225C139.492 92.6302 136.181 87.2475 136.791 84.667C137.854 80.131 143.116 78.7954 145.207 79.4556C145.597 79.5848 145.972 79.7537 146.326 79.9596C143.615 80.4636 139.89 83.1802 139.583 85.1155C139.255 87.192 140.697 92.4487 143.695 92.9225Z" fill="black"/>
<path d="M129.024 45.4205C128.853 47.1492 127.008 48.3235 125.496 49.4978C123.984 50.6722 120.96 50.1682 118.848 49.1652C116.736 48.1623 115.497 44.0244 115.552 43.717C116.943 43.717 118.193 43.848 119.256 43.8329C121.217 43.8329 124.579 41.9227 127.567 40.95C128.187 42.1143 129.155 44.2109 129.024 45.4205Z" fill="#224D8D"/>
<path opacity="0.1" d="M124.337 50.0371C122.734 50.4303 120.527 49.9464 118.868 49.1652C116.747 48.1572 115.517 44.0244 115.572 43.717C116.681 43.717 117.699 43.8027 118.596 43.8279C118.858 44.9064 119.569 47.5474 120.36 48.253C121.383 49.1501 123.273 49.9968 124.337 50.0371Z" fill="black"/>
<path d="M146.074 60.1121C147.48 59.1041 150.041 60.1121 150.212 62.0878C150.384 64.0635 147.808 65.1975 146.074 63.8568C145.778 63.6429 145.536 63.3617 145.37 63.0361C145.203 62.7106 145.116 62.3502 145.116 61.9845C145.116 61.6188 145.203 61.2583 145.37 60.9328C145.536 60.6073 145.778 60.326 146.074 60.1121V60.1121Z" fill="#224D8D"/>
<path opacity="0.1" d="M146.523 61.4528C146.231 62.5414 146.362 63.3075 147.385 64.4113C146.907 64.3448 146.455 64.1535 146.074 63.8568C145.778 63.643 145.536 63.3617 145.37 63.0362C145.203 62.7106 145.116 62.3502 145.116 61.9845C145.116 61.6188 145.203 61.2583 145.37 60.9328C145.536 60.6073 145.778 60.326 146.074 60.1121C146.449 59.8782 146.876 59.7434 147.317 59.7205C147.758 59.6976 148.198 59.7872 148.594 59.9811C148.494 59.9357 146.815 60.3641 146.523 61.4528Z" fill="black"/>
<path d="M124.775 106.193C124.462 105.855 124.069 105.601 123.631 105.457C120.849 104.545 119.816 104.101 119.816 104.101C119.816 104.101 119.03 101.768 117.568 101.218C116.106 100.669 114.04 102.226 114.04 102.226C114.378 99.3586 115.602 98.1943 117.669 97.1057C119.735 96.0171 123.369 96.511 124.488 99.3082C125.284 101.264 124.992 104.429 124.775 106.193Z" fill="#224D8D"/>
<path opacity="0.1" d="M121.671 96.8335C120.826 96.8751 120.001 97.0956 119.248 97.4805C118.496 97.8655 117.834 98.406 117.306 99.0663C116.948 99.6978 116.724 100.396 116.646 101.118C115.708 101.287 114.824 101.676 114.065 102.252C114.403 99.3838 115.628 98.2195 117.694 97.1309C118.935 96.5338 120.355 96.4276 121.671 96.8335V96.8335Z" fill="black"/>
<path d="M110.003 58.0507C106.349 60.0667 103.874 65.6763 104.01 67.5461C104.147 69.4159 105.391 72.4097 107.004 73.836C110.633 77.0465 117.79 75.5748 119.529 73.836C121.267 72.0972 123.223 66.7548 122.603 64.134C121.57 59.7543 113.738 55.9995 110.003 58.0507Z" fill="#224D8D"/>
<path opacity="0.1" d="M115.048 75.5698C112.332 75.978 109.086 75.6807 106.984 73.836C105.371 72.4097 104.121 69.421 103.99 67.5512C103.859 65.6813 106.329 60.0567 109.983 58.0508C111.132 57.4208 112.664 57.3401 114.267 57.6577C112.382 59.0437 109.272 61.604 108.592 63.8468C107.584 67.1177 108.184 70.5298 109.6 72.5105C110.537 73.7756 113.229 74.9146 115.048 75.5698Z" fill="black"/>
<path d="M102.06 81.5825C101.371 82.0488 100.553 82.2884 99.7214 82.2679C97.7609 82.1369 95.1602 79.7479 96.8486 76.4013C97.1573 75.8228 97.6388 75.3549 98.2261 75.0631C98.8134 74.7713 99.4771 74.67 100.125 74.7734C101.894 74.9297 103.688 76.1292 103.955 77.7067C104.062 78.4681 103.939 79.2442 103.601 79.9349C103.264 80.6257 102.727 81.1995 102.06 81.5825V81.5825Z" fill="#224D8D"/>
<path opacity="0.1" d="M102.06 81.5825C101.371 82.0488 100.553 82.2884 99.7214 82.2679C97.7609 82.1369 95.1602 79.7479 96.8486 76.4013C97.1573 75.8228 97.6388 75.3549 98.2261 75.0631C98.8134 74.7713 99.4771 74.67 100.125 74.7734C99.3636 75.353 98.1641 76.5324 98.1641 78.1855C98.1641 80.6098 99.6761 81.2095 100.608 81.5371C101.082 81.667 101.579 81.6825 102.06 81.5825V81.5825Z" fill="black"/>
<path d="M142.939 66.4323C142.763 66.5564 142.548 66.6145 142.334 66.5962C142.119 66.5778 141.917 66.4843 141.764 66.3321C141.611 66.1798 141.517 65.9786 141.498 65.7637C141.479 65.5488 141.536 65.334 141.659 65.1571C141.736 65.0148 141.854 64.8997 141.998 64.8275C142.143 64.7553 142.306 64.7296 142.466 64.7539C142.679 64.7604 142.884 64.834 143.052 64.9644C143.221 65.0948 143.344 65.2752 143.403 65.4797C143.43 65.6667 143.4 65.8574 143.318 66.0273C143.235 66.1972 143.103 66.3382 142.939 66.4323V66.4323Z" fill="#224D8D"/>
<path opacity="0.1" d="M142.939 66.4323C142.763 66.5564 142.549 66.6145 142.334 66.5962C142.119 66.5778 141.917 66.4843 141.764 66.3321C141.611 66.1798 141.517 65.9786 141.498 65.7637C141.479 65.5488 141.536 65.334 141.659 65.1571C141.736 65.0148 141.854 64.8997 141.998 64.8275C142.143 64.7553 142.306 64.7296 142.466 64.7539C142.323 64.8465 142.203 64.9704 142.116 65.1163C142.029 65.2622 141.976 65.4262 141.962 65.5956C141.946 65.7824 141.998 65.9687 142.108 66.1205C142.218 66.2722 142.379 66.3793 142.561 66.4222C142.685 66.4569 142.815 66.4603 142.939 66.4323Z" fill="black"/>
<path d="M102.231 86.305C103.481 85.7203 105.578 86.5167 105.316 87.6658C105.054 88.8149 103.955 89.7574 102.594 89.077C101.233 88.3966 101.722 86.5469 102.231 86.305Z" fill="#224D8D"/>
<path opacity="0.1" d="M104.772 88.704C104.505 89.0047 104.142 89.2041 103.746 89.2684C103.349 89.3326 102.942 89.2579 102.594 89.0568C101.238 88.3764 101.717 86.5368 102.231 86.2848C102.613 86.1178 103.032 86.0535 103.446 86.0983C103.095 86.4311 102.869 86.874 102.806 87.3533C102.816 88.1345 103.824 88.9207 104.772 88.704Z" fill="black"/>
<path d="M109.101 123.339V125.496H101.541V114.761H108.955V116.938H104.021V119.025H108.259V121.041H104.021V123.324L109.101 123.339Z" fill="#263238"/>
<path d="M110.618 125.496V114.761H115.456C115.94 114.756 116.418 114.865 116.852 115.078C117.273 115.283 117.65 115.565 117.966 115.91C118.275 116.253 118.523 116.647 118.697 117.074C118.871 117.491 118.962 117.938 118.964 118.39C118.966 118.715 118.924 119.039 118.838 119.352C118.761 119.655 118.646 119.946 118.495 120.219C118.345 120.491 118.156 120.741 117.936 120.96C117.719 121.177 117.473 121.361 117.205 121.509L119.564 125.501H116.767L114.71 122.039H113.098V125.496H110.618ZM113.098 119.871H115.366C115.516 119.869 115.663 119.83 115.795 119.758C115.926 119.686 116.038 119.583 116.122 119.458C116.344 119.147 116.455 118.771 116.439 118.39C116.458 118.003 116.328 117.625 116.076 117.331C115.98 117.214 115.861 117.118 115.725 117.05C115.59 116.983 115.441 116.944 115.29 116.938H113.098V119.871Z" fill="#263238"/>
<path d="M120.748 125.496V114.761H125.582C126.067 114.756 126.547 114.865 126.983 115.078C127.403 115.283 127.781 115.565 128.097 115.91C128.406 116.253 128.653 116.647 128.827 117.074C129 117.491 129.089 117.938 129.09 118.39C129.09 118.714 129.051 119.037 128.974 119.352C128.89 119.653 128.774 119.944 128.626 120.219C128.476 120.489 128.29 120.737 128.071 120.955C127.855 121.171 127.609 121.356 127.341 121.504L129.694 125.496H126.902L124.846 122.034H123.228V125.496H120.748ZM123.228 119.871H125.496C125.646 119.869 125.793 119.83 125.925 119.758C126.057 119.686 126.169 119.583 126.252 119.458C126.47 119.146 126.58 118.77 126.565 118.39C126.585 118.004 126.457 117.625 126.207 117.331C126.11 117.213 125.99 117.117 125.853 117.049C125.717 116.982 125.568 116.944 125.415 116.938H123.228V119.871Z" fill="#263238"/>
<path d="M135.576 125.607C134.824 125.617 134.08 125.456 133.399 125.138C132.764 124.842 132.194 124.424 131.72 123.908C131.256 123.397 130.891 122.804 130.642 122.16C130.387 121.518 130.256 120.834 130.254 120.144C130.254 119.443 130.39 118.75 130.657 118.102C131.183 116.8 132.192 115.752 133.474 115.179C134.149 114.877 134.882 114.724 135.621 114.731C136.375 114.722 137.12 114.882 137.804 115.199C138.438 115.5 139.008 115.921 139.482 116.439C139.943 116.954 140.307 117.548 140.556 118.193C140.802 118.836 140.929 119.52 140.928 120.209C140.931 120.909 140.795 121.602 140.53 122.25C140.271 122.893 139.893 123.481 139.416 123.984C138.934 124.488 138.359 124.896 137.723 125.184C137.047 125.48 136.314 125.625 135.576 125.607V125.607ZM132.784 120.164C132.784 120.572 132.843 120.977 132.96 121.368C133.075 121.743 133.258 122.093 133.5 122.401C133.745 122.722 134.063 122.981 134.428 123.156C134.792 123.331 135.192 123.418 135.596 123.409C136.027 123.419 136.453 123.32 136.836 123.122C137.176 122.938 137.474 122.684 137.708 122.376C137.937 122.061 138.107 121.708 138.212 121.333C138.328 120.947 138.388 120.546 138.388 120.144C138.39 119.736 138.327 119.331 138.202 118.944C138.086 118.576 137.902 118.234 137.658 117.936C137.417 117.639 137.117 117.397 136.776 117.225C136.405 117.032 135.994 116.93 135.576 116.928C135.147 116.917 134.723 117.014 134.341 117.21C134.001 117.39 133.702 117.639 133.464 117.941C133.224 118.251 133.045 118.603 132.935 118.979C132.827 119.365 132.776 119.764 132.784 120.164Z" fill="#263238"/>
<path d="M142.365 125.496V114.761H147.203C147.689 114.756 148.168 114.865 148.604 115.078C149.023 115.283 149.399 115.565 149.713 115.91C150.026 116.251 150.275 116.645 150.449 117.074C150.621 117.491 150.71 117.938 150.711 118.39C150.712 118.714 150.672 119.038 150.59 119.352C150.511 119.655 150.394 119.946 150.242 120.219C149.947 120.763 149.501 121.209 148.957 121.504L151.316 125.496H148.519L146.462 122.034H144.845V125.496H142.365ZM144.845 119.871H147.113C147.263 119.869 147.41 119.83 147.541 119.758C147.673 119.686 147.785 119.583 147.869 119.458C148.091 119.147 148.202 118.771 148.186 118.39C148.205 118.003 148.075 117.625 147.823 117.331C147.728 117.213 147.608 117.117 147.473 117.05C147.337 116.982 147.188 116.944 147.037 116.938H144.845V119.871Z" fill="#263238"/>
<path d="M34.9625 37.921C34.2107 37.9306 33.4664 37.7704 32.7852 37.4523C32.1506 37.1541 31.5804 36.7346 31.1069 36.2175C30.643 35.7076 30.2774 35.1164 30.0283 34.4736C29.7737 33.8319 29.642 33.148 29.6403 32.4576C29.6433 31.7659 29.7802 31.0813 30.0435 30.4416C30.5667 29.1367 31.5771 28.0866 32.8608 27.5134C33.5362 27.2126 34.2686 27.0613 35.0079 27.0699C35.7596 27.0602 36.5039 27.2205 37.1851 27.5386C37.8167 27.8219 38.3869 28.226 38.8635 28.728C39.3266 29.2413 39.6906 29.836 39.937 30.4819C40.1873 31.1246 40.3155 31.8083 40.315 32.498C40.3137 33.1894 40.1785 33.874 39.9168 34.514C39.3917 35.8155 38.3867 36.8655 37.1095 37.4472C36.4374 37.7612 35.7043 37.923 34.9625 37.921ZM32.1653 32.4778C32.1645 32.8845 32.2256 33.289 32.3467 33.6773C32.4618 34.0533 32.6446 34.4052 32.886 34.7155C33.1234 35.019 33.4245 35.2668 33.768 35.4413C34.1434 35.628 34.5584 35.7214 34.9776 35.7135C35.4085 35.7236 35.8349 35.6248 36.2175 35.4262C36.5606 35.2421 36.8597 34.9859 37.0944 34.6752C37.3231 34.3602 37.4937 34.0069 37.5984 33.632C37.7233 33.2492 37.7912 32.8501 37.8 32.4475C37.7971 32.0403 37.7325 31.6359 37.6085 31.248C37.4929 30.8804 37.3082 30.5383 37.0642 30.24C36.8239 29.9433 36.5233 29.701 36.1822 29.5294C35.8101 29.3357 35.3971 29.2337 34.9776 29.232C34.551 29.2205 34.1283 29.3158 33.7479 29.5092C33.4078 29.689 33.109 29.9379 32.8709 30.24C32.6425 30.5423 32.4717 30.884 32.3669 31.248C32.2381 31.6454 32.1701 32.0601 32.1653 32.4778V32.4778Z" fill="#263238"/>
<path d="M45.36 37.9815C44.7424 37.9921 44.1289 37.879 43.5557 37.6488C43.0514 37.4437 42.595 37.1365 42.215 36.7467C41.8534 36.3695 41.5737 35.9216 41.3935 35.4312C41.0173 34.4219 41.0173 33.3107 41.3935 32.3014C41.5737 31.811 41.8534 31.3631 42.215 30.9859C42.596 30.596 43.0521 30.2874 43.5557 30.0787C44.7146 29.6284 46.0003 29.6284 47.1593 30.0787C47.6593 30.2886 48.1118 30.5972 48.4898 30.9859C48.8528 31.364 49.1356 31.8114 49.3214 32.3014C49.513 32.8017 49.6104 33.3331 49.6087 33.8688C49.6113 34.4021 49.5174 34.9314 49.3315 35.4312C49.1494 35.9219 48.868 36.3697 48.5049 36.7467C48.1268 37.1364 47.6721 37.4436 47.1693 37.6488C46.5944 37.879 45.9792 37.9921 45.36 37.9815V37.9815ZM43.5657 33.8688C43.5376 34.4183 43.7176 34.9581 44.0697 35.3808C44.2288 35.5652 44.4275 35.7112 44.6509 35.8081C44.8743 35.9049 45.1167 35.9501 45.36 35.9403C45.6002 35.9428 45.838 35.8911 46.0555 35.7891C46.2679 35.6883 46.4568 35.5441 46.6099 35.3657C46.7731 35.1708 46.8979 34.9468 46.9778 34.7055C47.0707 34.4364 47.1167 34.1534 47.1139 33.8688C47.1405 33.3196 46.9608 32.7802 46.6099 32.3568C46.4561 32.1768 46.2641 32.0332 46.0479 31.9364C45.8317 31.8396 45.5968 31.7922 45.36 31.7974C45.1208 31.7957 44.8841 31.8462 44.6665 31.9454C44.4489 32.0447 44.2555 32.1902 44.1 32.3719C43.9356 32.565 43.809 32.7872 43.727 33.0271C43.6256 33.2964 43.5711 33.5811 43.5657 33.8688V33.8688Z" fill="#263238"/>
<path d="M55.7978 37.9815C55.2496 37.9954 54.7073 37.8651 54.2254 37.6035C53.7951 37.3543 53.4453 36.987 53.2174 36.5451V41.0508H50.7982V29.8923H52.8998V31.1775C53.1751 30.741 53.5521 30.3778 53.9986 30.1191C54.4767 29.857 55.0159 29.7265 55.561 29.7411C56.0707 29.7356 56.5752 29.8441 57.0377 30.0586C57.4807 30.2654 57.8768 30.5603 58.2019 30.9255C58.5359 31.3075 58.7957 31.7485 58.968 32.2258C59.1565 32.7424 59.2505 33.2887 59.2452 33.8386C59.2507 34.3984 59.1639 34.9552 58.9882 35.4867C58.8278 35.9624 58.5819 36.4048 58.2624 36.792C57.9653 37.1565 57.5943 37.4537 57.1738 37.664C56.7466 37.8769 56.2751 37.9857 55.7978 37.9815V37.9815ZM54.9814 35.9655C55.2325 35.9675 55.4802 35.9068 55.7021 35.7891C55.918 35.674 56.1097 35.5182 56.2666 35.3304C56.4326 35.131 56.5591 34.9018 56.6395 34.6551C56.7251 34.3949 56.7676 34.1226 56.7655 33.8487C56.7692 33.5718 56.7214 33.2966 56.6244 33.0372C56.5346 32.8011 56.4013 32.584 56.2313 32.3972C56.0626 32.214 55.8563 32.0696 55.6265 31.9738C55.384 31.872 55.1234 31.8206 54.8604 31.8226C54.5195 31.8243 54.1866 31.926 53.9028 32.1149C53.5975 32.3088 53.3529 32.5848 53.1972 32.9112V34.5442C53.3541 34.9366 53.6071 35.2832 53.933 35.5522C54.225 35.8024 54.5968 35.94 54.9814 35.9403V35.9655Z" fill="#263238"/>
<path d="M63.5847 37.9815C62.8993 37.9823 62.2185 37.8717 61.5687 37.6539C60.9536 37.4614 60.3866 37.1401 59.9055 36.7114L60.7673 35.2296C61.209 35.539 61.684 35.7977 62.1835 36.0008C62.6015 36.1795 63.0496 36.277 63.504 36.288C63.7568 36.3025 64.0085 36.2448 64.2298 36.1217C64.3151 36.0698 64.3843 35.9951 64.4297 35.9061C64.4751 35.8171 64.4949 35.7173 64.4868 35.6177C64.4851 35.512 64.454 35.4089 64.3971 35.3199C64.3401 35.2309 64.2595 35.1595 64.1643 35.1137C63.8003 34.9355 63.4162 34.8018 63.0202 34.7156C62.4859 34.5644 62.0122 34.4182 61.6695 34.2771C61.3493 34.1615 61.0459 34.0039 60.7673 33.8084C60.5509 33.659 60.3772 33.4557 60.2633 33.2187C60.1572 32.9704 60.1056 32.7023 60.1121 32.4324C60.1064 32.0599 60.1851 31.691 60.3422 31.3532C60.4993 31.0154 60.7308 30.7176 61.0193 30.482C61.3195 30.2408 61.661 30.0564 62.0273 29.9376C62.4337 29.8035 62.8594 29.7371 63.2873 29.7411C63.8541 29.7369 64.4182 29.8184 64.9606 29.983C65.5209 30.1652 66.0362 30.4641 66.4726 30.86L65.5351 32.3115C65.1579 32.0414 64.7523 31.8133 64.3255 31.6311C64.0058 31.4979 63.6638 31.4261 63.3175 31.4194C63.0858 31.4112 62.8561 31.4652 62.6523 31.5756C62.5649 31.6265 62.4933 31.7004 62.4453 31.7894C62.3973 31.8783 62.3747 31.9787 62.3801 32.0796C62.3759 32.1834 62.4017 32.2861 62.4545 32.3755C62.5072 32.4649 62.5846 32.5372 62.6775 32.5836C63.0263 32.7475 63.3935 32.8693 63.7711 32.9465C64.256 33.072 64.7338 33.2234 65.2025 33.4001C65.5388 33.5229 65.8561 33.6926 66.145 33.9041C66.3715 34.0726 66.5533 34.2941 66.6742 34.5492C66.791 34.8212 66.8477 35.1152 66.8405 35.4111C66.8546 35.7729 66.7819 36.1328 66.6285 36.4607C66.475 36.7886 66.2453 37.0751 65.9585 37.296C65.2684 37.7883 64.4309 38.0302 63.5847 37.9815V37.9815Z" fill="#263238"/>
<path d="M67.9846 37.8303V35.3657H69.9653V37.8303H67.9846Z" fill="#263238"/>
<path d="M71.5982 37.8303V35.3657H73.584V37.8303H71.5982Z" fill="#263238"/>
<path d="M75.2119 37.8303V35.3657H77.1926V37.8303H75.2119Z" fill="#263238"/>
<path d="M126.373 157.389C125.128 157.319 119.1 156.683 118.047 155.716C115.174 153.075 113.511 151.361 113.264 149.733C113.032 148.287 114.171 145.55 114.196 144.063C114.222 142.577 116.747 143.388 117.613 143.297C119.408 143.116 119.806 144.154 120.748 144.492C121.404 144.729 123.636 143.529 125.214 144.658C126.791 145.787 126.474 147.707 126.474 147.707C126.474 147.707 130.148 149.391 130.213 151.397C130.284 153.665 127.774 157.47 126.373 157.389Z" fill="#224D8D"/>
<path opacity="0.3" d="M126.373 157.389C125.128 157.319 119.1 156.683 118.047 155.716C115.174 153.075 113.511 151.361 113.264 149.733C113.032 148.287 114.171 145.55 114.196 144.063C114.222 142.577 116.747 143.388 117.613 143.297C119.408 143.116 119.806 144.154 120.748 144.492C121.404 144.729 123.636 143.529 125.214 144.658C126.791 145.787 126.474 147.707 126.474 147.707C126.474 147.707 130.148 149.391 130.213 151.397C130.284 153.665 127.774 157.47 126.373 157.389Z" fill="white"/>
<path d="M55.6013 204.679C53.7718 206.816 46.2975 208.288 41.9077 204.846C37.5178 201.403 34.9121 189.963 35.0281 186.107C35.144 182.251 46.4134 135.072 49.6189 123.833C52.8243 112.594 47.6029 107.004 43.9287 104.348C40.2545 101.692 32.4829 104.585 30.9104 106.263C29.3379 107.942 28.6273 112.392 28.6273 112.392C28.6273 112.392 29.9276 108.36 32.3014 107.024C34.6753 105.689 39.8917 104.741 42.6233 106.284C45.355 107.826 49.3568 114.695 47.114 120.698C44.8712 126.701 31.2481 181.153 30.9104 186.243C30.5223 192.357 33.9646 203.127 39.181 207.779C44.3974 212.431 53.3535 211.992 54.301 212.315C55.2485 212.638 55.3897 214.019 55.3897 214.019L55.6013 204.679Z" fill="#224D8D"/>
<path opacity="0.1" d="M55.6013 204.679C53.7718 206.816 46.2975 208.288 41.9077 204.846C37.5178 201.403 34.9121 189.963 35.0281 186.107C35.144 182.251 46.4134 135.072 49.6189 123.833C52.8243 112.594 47.6029 107.004 43.9287 104.348C40.2545 101.692 32.4829 104.585 30.9104 106.263C29.3379 107.942 28.6273 112.392 28.6273 112.392C28.6273 112.392 29.9276 108.36 32.3014 107.024C34.6753 105.689 39.8917 104.741 42.6233 106.284C45.355 107.826 49.3568 114.695 47.114 120.698C44.8712 126.701 31.2481 181.153 30.9104 186.243C30.5223 192.357 33.9646 203.127 39.181 207.779C44.3974 212.431 53.3535 211.992 54.301 212.315C55.2485 212.638 55.3897 214.019 55.3897 214.019L55.6013 204.679Z" fill="black"/>
<g opacity="0.2">
<path opacity="0.2" d="M52.8293 206.872C52.5392 208.614 52.4884 210.388 52.6781 212.144H52.4765C52.3532 211.291 52.3027 210.43 52.3253 209.568C52.3486 208.655 52.4531 207.746 52.6378 206.852C52.6781 206.665 52.7185 206.479 52.7638 206.292L52.9503 206.232C52.9201 206.433 52.8646 206.64 52.8293 206.872Z" fill="black"/>
<path opacity="0.2" d="M46.2874 206.7L46.2269 207.048C46.0778 207.939 45.9819 208.838 45.9396 209.74C45.9396 209.286 45.9044 208.832 45.9396 208.379C45.9749 207.925 45.99 207.472 46.0555 207.018L46.1009 206.665L46.2874 206.7Z" fill="black"/>
<path opacity="0.2" d="M47.3005 211.468C47.3005 211.564 47.3005 211.655 47.3005 211.751C47.3005 211.655 47.2702 211.559 47.2602 211.463C47.2047 211.11 47.1543 210.758 47.1241 210.4C47.1241 209.946 47.0636 209.493 47.0787 209.034C47.0815 208.298 47.1422 207.563 47.2602 206.837H47.5071C47.3801 207.56 47.301 208.29 47.2702 209.024C47.2317 209.839 47.2417 210.655 47.3005 211.468Z" fill="black"/>
<path opacity="0.2" d="M49.261 210.44C49.261 210.897 49.261 211.356 49.261 211.816L49.0292 211.781C49.0292 211.327 49.0292 210.879 49.0292 210.43C49.0711 209.521 49.2235 208.621 49.4828 207.749C49.3337 208.638 49.2596 209.538 49.261 210.44V210.44Z" fill="black"/>
<path opacity="0.2" d="M44.2008 206.136C44.1101 206.559 44.0295 206.988 43.974 207.416C43.8397 208.307 43.7707 209.207 43.7674 210.107C43.7674 210.228 43.7674 210.344 43.7674 210.465L43.591 210.4C43.591 210.304 43.591 210.203 43.591 210.107C43.5606 209.196 43.6112 208.283 43.7422 207.381C43.8067 206.933 43.8942 206.489 44.0043 206.05L44.2008 206.136Z" fill="black"/>
<path opacity="0.2" d="M39.0953 201.242C39.0315 201.373 38.971 201.504 38.9139 201.635C38.2764 203.038 37.8077 204.512 37.5178 206.025L37.4473 205.939C37.4473 205.773 37.4876 205.607 37.5128 205.435C37.5934 204.992 37.664 204.538 37.7849 204.1C38.0105 203.216 38.3106 202.353 38.6821 201.519C38.7677 201.333 38.8585 201.146 38.9492 200.965L39.0953 201.242Z" fill="black"/>
<path opacity="0.2" d="M39.8161 202.472C39.6599 202.86 39.5238 203.253 39.4028 203.651C39.1392 204.507 38.9404 205.381 38.8081 206.267C38.7476 206.6 38.6972 206.927 38.6619 207.275C38.6157 207.23 38.5719 207.183 38.5309 207.134C38.5442 206.839 38.5728 206.544 38.6166 206.252C38.7351 205.346 38.9324 204.452 39.2063 203.581C39.3524 203.127 39.5137 202.679 39.7103 202.24C39.7254 202.311 39.7758 202.391 39.8161 202.472Z" fill="black"/>
<path opacity="0.2" d="M41.1617 205.249C40.8941 206.113 40.7002 206.998 40.5821 207.895C40.5418 208.192 40.5065 208.49 40.4813 208.787L40.2697 208.656C40.2999 208.399 40.3402 208.152 40.3906 207.88C40.5416 206.975 40.8005 206.092 41.1617 205.249V205.249Z" fill="black"/>
<path opacity="0.2" d="M38.168 199.347C37.8413 199.789 37.5384 200.249 37.2608 200.723C36.7972 201.495 36.3782 202.292 36.0058 203.112C36.157 202.689 36.3032 202.255 36.5098 201.837C36.7164 201.419 36.8878 201.01 37.1146 200.617C37.4003 200.091 37.7237 199.585 38.0823 199.105C38.0924 199.181 38.1276 199.267 38.168 199.347Z" fill="black"/>
<path opacity="0.2" d="M35.8395 192.16C35.653 192.326 35.4665 192.493 35.2851 192.664C34.6291 193.284 34.0066 193.938 33.4203 194.625C33.6874 194.262 33.9243 193.884 34.2368 193.536C34.5492 193.188 34.8264 192.84 35.154 192.528C35.3556 192.316 35.5673 192.115 35.784 191.928C35.784 192.024 35.8244 192.079 35.8395 192.16Z" fill="black"/>
<path opacity="0.2" d="M36.1772 193.536C35.7284 193.964 35.306 194.418 34.9121 194.897C34.3305 195.588 33.7886 196.311 33.2892 197.064C33.511 196.666 33.7227 196.263 33.9696 195.885C34.2166 195.507 34.4736 195.124 34.7609 194.771C35.1711 194.234 35.6209 193.729 36.1066 193.259C36.1318 193.355 36.152 193.445 36.1772 193.536Z" fill="black"/>
<path opacity="0.2" d="M36.8475 195.829C36.4191 196.261 36.0153 196.717 35.6379 197.195C35.0768 197.895 34.5713 198.639 34.1259 199.418C34.0402 199.559 33.9596 199.7 33.879 199.841L33.758 199.559C33.8034 199.468 33.8588 199.377 33.9092 199.287C34.3697 198.501 34.8975 197.758 35.4867 197.064C35.8968 196.587 36.3415 196.14 36.8173 195.728L36.8475 195.829Z" fill="black"/>
<path opacity="0.2" d="M35.1994 188.657C34.3261 188.692 33.4568 188.793 32.5988 188.96C32.0595 189.055 31.5202 189.171 30.991 189.318C30.991 189.242 30.991 189.166 30.991 189.091C31.495 188.94 32.0393 188.819 32.5736 188.713C33.4379 188.551 34.315 188.466 35.1944 188.461C35.1843 188.526 35.1894 188.592 35.1994 188.657Z" fill="black"/>
<path opacity="0.2" d="M35.7135 182.005C35.7135 182.085 35.6782 182.166 35.6631 182.246C35.0235 182.211 34.3824 182.211 33.7428 182.246C33.0138 182.271 32.2867 182.338 31.5656 182.448C31.5632 182.43 31.5632 182.411 31.5656 182.393C31.8327 182.327 32.0948 182.267 32.3669 182.221C32.8155 182.156 33.2691 182.08 33.7227 182.05C34.3844 181.989 35.0496 181.974 35.7135 182.005V182.005Z" fill="black"/>
<path opacity="0.2" d="M35.4816 183.189L35.4363 183.426C35.1893 183.426 34.9323 183.426 34.6954 183.426C33.7951 183.438 32.8971 183.519 32.0091 183.668C31.7672 183.703 31.5303 183.743 31.2934 183.789C31.2934 183.733 31.2934 183.678 31.3287 183.622C31.5404 183.567 31.7571 183.517 31.9738 183.476C32.8689 183.297 33.7778 183.196 34.6904 183.174C34.9524 183.174 35.2196 183.179 35.4816 183.189Z" fill="black"/>
<path opacity="0.2" d="M33.7378 185.598C32.8357 185.623 31.9373 185.723 31.0515 185.895L30.9406 185.921C30.9406 185.86 30.9406 185.79 30.9406 185.719H30.991C31.8984 185.569 32.8207 185.528 33.7378 185.598V185.598Z" fill="black"/>
<path opacity="0.2" d="M36.1268 179.988C36.1268 180.049 36.1016 180.104 36.0915 180.16C35.9353 180.16 35.774 180.125 35.6177 180.114C34.7201 180.049 33.8189 180.049 32.9213 180.114C32.624 180.114 32.3317 180.155 32.0343 180.19C32.0343 180.104 32.0746 180.024 32.0897 179.943C32.3619 179.913 32.6341 179.888 32.9062 179.868C33.8171 179.81 34.7312 179.834 35.6379 179.938L36.1268 179.988Z" fill="black"/>
<path opacity="0.2" d="M37.4926 173.688C37.4926 173.769 37.4573 173.855 37.4372 173.935C36.5893 173.746 35.7284 173.619 34.8617 173.557C34.4233 173.517 33.9797 173.497 33.5413 173.497L33.5715 173.371C34.0049 173.371 34.4384 173.336 34.8769 173.371C35.7561 173.403 36.6311 173.51 37.4926 173.688V173.688Z" fill="black"/>
<path opacity="0.2" d="M37.2356 174.853C37.2356 174.928 37.2003 175.004 37.1852 175.074C36.6852 174.978 36.1805 174.909 35.6732 174.868C34.87 174.78 34.0615 174.749 33.254 174.777C33.254 174.707 33.2892 174.636 33.3044 174.565C34.1025 174.524 34.9026 174.541 35.6984 174.616C36.2146 174.668 36.7277 174.747 37.2356 174.853V174.853Z" fill="black"/>
<path opacity="0.2" d="M34.4535 176.904C33.8957 176.851 33.3353 176.831 32.7751 176.844C32.7845 176.796 32.7963 176.749 32.8104 176.702C33.3628 176.724 33.9123 176.791 34.4535 176.904V176.904Z" fill="black"/>
<path opacity="0.2" d="M38.9995 167.036C38.9995 167.096 38.9996 167.152 38.9592 167.212C38.1428 167.046 37.3112 166.96 36.4796 166.869C36.9332 166.869 37.3868 166.869 37.8404 166.905C38.294 166.94 38.6165 166.97 38.9995 167.036Z" fill="black"/>
<path opacity="0.2" d="M38.7325 168.2C38.7325 168.281 38.6972 168.356 38.677 168.432C38.173 168.341 37.669 168.281 37.1298 168.24C36.3523 168.171 35.5714 168.148 34.7912 168.17C34.7935 168.156 34.7935 168.143 34.7912 168.129C35.1138 168.094 35.4414 168.059 35.769 168.044C36.2226 168.044 36.6762 168.013 37.1348 168.044C37.6699 168.065 38.2034 168.117 38.7325 168.2V168.2Z" fill="black"/>
<path opacity="0.2" d="M38.3444 170.523L38.2083 170.493C37.3783 170.317 36.5357 170.208 35.6883 170.165C35.2448 170.165 34.8013 170.13 34.3527 170.135C34.3527 170.06 34.388 169.984 34.4082 169.908C34.8416 169.908 35.275 169.934 35.7034 169.974C36.5595 170.049 37.4046 170.218 38.2234 170.478L38.3444 170.523Z" fill="black"/>
<path opacity="0.2" d="M39.5035 164.863C39.5035 164.944 39.4632 165.025 39.4481 165.1C39.2566 165.055 39.0651 165.02 38.8735 164.989C37.9901 164.823 37.0956 164.722 36.1973 164.687C36.0108 164.687 35.8193 164.687 35.6328 164.687C35.6328 164.632 35.6328 164.571 35.6731 164.516H36.1771C37.0881 164.52 37.997 164.602 38.8937 164.763C39.1155 164.778 39.312 164.808 39.5035 164.863Z" fill="black"/>
<path opacity="0.2" d="M41.4339 156.613C41.4339 156.663 41.4339 156.714 41.3986 156.764C40.7837 156.653 40.1537 156.578 39.5287 156.502C39.9672 156.502 40.4057 156.502 40.8492 156.547L41.4339 156.613Z" fill="black"/>
<path opacity="0.2" d="M40.698 159.733C40.698 159.803 40.6628 159.874 40.6476 159.939L40.1991 159.844C39.3152 159.661 38.4217 159.53 37.5228 159.45C37.9714 159.45 38.43 159.45 38.8836 159.486C39.3372 159.521 39.7908 159.566 40.2344 159.652L40.698 159.733Z" fill="black"/>
<path opacity="0.2" d="M42.8401 150.661C42.8401 150.741 42.7997 150.817 42.7846 150.893C42.1106 150.673 41.4239 150.495 40.7283 150.358C40.2243 150.247 39.7203 150.167 39.2163 150.106L39.2466 149.995H39.423C39.8766 150.041 40.3302 150.076 40.7787 150.157C41.4776 150.272 42.1667 150.441 42.8401 150.661V150.661Z" fill="black"/>
<path opacity="0.2" d="M42.3058 152.934C42.3058 153.009 42.2705 153.085 42.2504 153.161C41.8976 153.055 41.5347 152.964 41.1718 152.888C40.3324 152.694 39.4802 152.559 38.6216 152.485L38.6669 152.289C39.5288 152.337 40.3851 152.457 41.2273 152.646C41.5901 152.712 41.948 152.823 42.3058 152.934Z" fill="black"/>
<path opacity="0.2" d="M44.3521 141.72C43.5048 141.408 42.6333 141.167 41.7464 140.999L41.5297 140.959C41.5297 140.893 41.5649 140.828 41.5801 140.762L41.7867 140.808C42.674 141.012 43.5348 141.318 44.3521 141.72V141.72Z" fill="black"/>
<path opacity="0.2" d="M43.344 148.68L43.2987 148.856L43.0769 148.781C42.223 148.494 41.3486 148.271 40.4612 148.116C40.2293 148.07 39.9924 148.03 39.7556 148L39.816 147.768L40.5065 147.869C41.4051 148.033 42.2873 148.278 43.1424 148.599L43.344 148.68Z" fill="black"/>
<path opacity="0.2" d="M50.138 121.701C50.14 121.723 50.14 121.745 50.138 121.766C49.5004 121.461 48.8438 121.196 48.1724 120.975C47.8296 120.859 47.4768 120.753 47.1291 120.658C47.1588 120.587 47.184 120.515 47.2047 120.441C47.5525 120.547 47.9002 120.663 48.2127 120.794C48.8786 121.042 49.5226 121.345 50.138 121.701V121.701Z" fill="black"/>
<path opacity="0.2" d="M48.9485 123.535C48.1298 123.222 47.287 122.976 46.4285 122.8V122.8C46.4285 122.739 46.4688 122.684 46.484 122.623C47.3374 122.833 48.1642 123.139 48.9485 123.535V123.535Z" fill="black"/>
<path opacity="0.2" d="M49.2257 110.593C48.5453 110.688 47.8649 110.83 47.2097 110.971C47.6432 110.84 48.0766 110.694 48.5201 110.588L49.1804 110.442C49.1804 110.492 49.2056 110.542 49.2257 110.593Z" fill="black"/>
<path opacity="0.2" d="M49.7499 111.888C49.4576 111.888 49.1652 111.933 48.878 111.969C48.2178 112.036 47.5616 112.139 46.9124 112.276C46.9144 112.254 46.9144 112.232 46.9124 112.211C47.119 112.145 47.3307 112.085 47.5373 112.034C47.9808 111.938 48.4244 111.833 48.878 111.777C49.1501 111.732 49.4273 111.696 49.6995 111.676C49.7206 111.746 49.7374 111.816 49.7499 111.888V111.888Z" fill="black"/>
<path opacity="0.2" d="M50.5916 118.153C50.5916 118.203 50.5916 118.254 50.5916 118.309C49.9717 118.163 49.3417 118.052 48.7117 117.941C49.1602 117.976 49.6189 118.002 50.0674 118.067L50.5916 118.153Z" fill="black"/>
<path opacity="0.2" d="M49.4475 114.181C48.7947 114.189 48.1431 114.239 47.497 114.332C47.497 114.277 47.497 114.232 47.4617 114.181C48.1222 114.118 48.7871 114.118 49.4475 114.181V114.181Z" fill="black"/>
<path opacity="0.2" d="M47.4768 107.72C46.9728 107.957 46.4991 108.224 46.0354 108.501C45.7683 108.652 45.5314 108.814 45.2592 109.005L45.1786 108.884C45.4255 108.698 45.6826 108.516 45.9346 108.355C46.3803 108.058 46.845 107.79 47.3256 107.554L47.4768 107.72Z" fill="black"/>
<path opacity="0.2" d="M44.7754 105.749C44.3091 106.089 43.8632 106.456 43.4398 106.848L43.3289 106.752C43.7816 106.377 44.2655 106.042 44.7754 105.749V105.749Z" fill="black"/>
<path opacity="0.2" d="M39.1004 103.32C38.8131 103.859 38.5611 104.409 38.3292 104.968C38.2536 105.15 38.1831 105.331 38.1125 105.517H37.8706C37.9613 105.301 38.052 105.089 38.1478 104.877C38.3946 104.341 38.6758 103.821 38.9895 103.32H39.1004Z" fill="black"/>
<path opacity="0.2" d="M37.17 103.98C36.8902 104.532 36.6461 105.101 36.4392 105.684L36.2628 105.714C36.5106 105.109 36.8143 104.529 37.17 103.98V103.98Z" fill="black"/>
<path opacity="0.2" d="M35.3456 104.026C35.2952 104.53 35.2649 105.034 35.2347 105.573C35.2347 105.119 35.1893 104.666 35.2044 104.212C35.2044 104.162 35.2044 104.116 35.2044 104.066L35.3456 104.026Z" fill="black"/>
<path opacity="0.2" d="M33.9596 106.299L33.7681 106.344C33.6881 105.776 33.641 105.204 33.627 104.63L33.8689 104.53C33.8655 105.121 33.8958 105.711 33.9596 106.299V106.299Z" fill="black"/>
<path opacity="0.2" d="M32.7248 105.563C32.6844 105.981 32.6643 106.404 32.6643 106.823L32.5383 106.883C32.57 106.439 32.6323 105.998 32.7248 105.563V105.563Z" fill="black"/>
<path opacity="0.2" d="M44.4579 104.746C43.9333 105.101 43.4285 105.485 42.9459 105.895L42.5528 106.238C42.4865 106.198 42.4175 106.163 42.3461 106.132C42.5024 106.001 42.6586 105.87 42.8199 105.744C43.3124 105.358 43.8311 105.006 44.3722 104.691L44.4579 104.746Z" fill="black"/>
<path opacity="0.2" d="M46.6402 106.737C46.1362 107.06 45.6776 107.412 45.1988 107.745C45.5365 107.448 45.8691 107.135 46.2068 106.853L46.5193 106.616L46.6402 106.737Z" fill="black"/>
<path opacity="0.2" d="M44.594 143.489L44.5335 143.731L44.3823 143.675C43.5352 143.366 42.6658 143.122 41.7817 142.945C41.5448 142.889 41.3079 142.844 41.066 142.803C41.066 142.753 41.066 142.708 41.1013 142.657C41.3432 142.682 41.6053 142.713 41.822 142.758C42.7206 142.907 43.6043 143.135 44.4629 143.438L44.594 143.489Z" fill="black"/>
<path opacity="0.2" d="M46.0606 137.547C46.0583 137.582 46.0583 137.617 46.0606 137.652L44.9418 137.33C45.2946 137.401 45.6776 137.461 46.0606 137.547Z" fill="black"/>
<path opacity="0.2" d="M45.4962 139.805L45.4508 140.011L44.9468 139.87C44.0712 139.654 43.1845 139.486 42.2907 139.366C42.7393 139.396 43.1979 139.417 43.6465 139.472C44.095 139.527 44.5486 139.598 44.9922 139.709C45.1484 139.719 45.3248 139.759 45.4962 139.805Z" fill="black"/>
<path opacity="0.2" d="M48.4093 128.308L48.3488 128.535C48.0665 128.454 47.7843 128.384 47.5021 128.323C46.6736 128.123 45.8312 127.985 44.9821 127.91C44.9821 127.84 45.0173 127.774 45.0375 127.709C45.8858 127.766 46.7283 127.889 47.5575 128.076C47.8448 128.147 48.127 128.223 48.4093 128.308Z" fill="black"/>
<path opacity="0.2" d="M46.6201 135.304L46.5596 135.536C46.0497 135.374 45.5316 135.239 45.0073 135.132C44.3888 134.99 43.7629 134.882 43.1324 134.81C43.1347 134.785 43.1347 134.759 43.1324 134.734C43.3138 134.734 43.4902 134.734 43.6717 134.76C44.1202 134.81 44.5738 134.85 45.0224 134.941C45.562 135.028 46.0957 135.149 46.6201 135.304V135.304Z" fill="black"/>
<path opacity="0.2" d="M47.8801 130.324C47.8816 130.346 47.8816 130.368 47.8801 130.39L47.2148 130.193L47.8801 130.324Z" fill="black"/>
<path opacity="0.2" d="M48.4546 125.269C47.6239 124.981 46.7709 124.762 45.9044 124.614C45.9044 124.554 45.9346 124.493 45.9548 124.433C46.8174 124.615 47.6562 124.895 48.4546 125.269V125.269Z" fill="black"/>
<path opacity="0.2" d="M40.1991 161.855C40.1937 161.889 40.1852 161.923 40.1739 161.955C39.6284 161.801 39.0749 161.676 38.5157 161.582C37.8305 161.457 37.139 161.37 36.4443 161.32C36.4443 161.245 36.4796 161.164 36.4997 161.089C37.1897 161.141 37.8751 161.242 38.551 161.391C39.1095 161.511 39.66 161.666 40.1991 161.855V161.855Z" fill="black"/>
</g>
<path d="M73.08 226.296C74.5387 226.097 76.0163 226.076 77.4799 226.235C79.1283 226.386 80.7372 226.826 82.2327 227.536C82.6711 227.747 83.0542 227.097 82.6157 226.886C79.5764 225.477 76.1831 225.017 72.8784 225.565C72.3996 225.641 72.6062 226.372 73.08 226.296V226.296Z" fill="#263238"/>
<path d="M71.6336 226.462C73.2228 226.617 74.752 227.149 76.0939 228.015C77.5226 228.862 78.775 229.976 79.7832 231.296C80.0604 231.689 80.7156 231.296 80.4334 230.913C79.3623 229.483 78.0152 228.284 76.4719 227.385C75.0156 226.452 73.3561 225.883 71.6336 225.726C71.1296 225.701 71.1296 226.457 71.6336 226.482V226.462Z" fill="#263238"/>
<path d="M105.034 218.232C106.491 218.032 107.967 218.012 109.428 218.171C111.078 218.325 112.688 218.765 114.186 219.472C114.62 219.683 115.003 219.033 114.564 218.822C111.524 217.421 108.134 216.966 104.832 217.516C104.353 217.597 104.555 218.323 105.034 218.247V218.232Z" fill="#263238"/>
<path d="M103.562 218.393C105.152 218.547 106.682 219.082 108.022 219.951C109.452 220.795 110.705 221.907 111.712 223.227C111.989 223.62 112.644 223.227 112.362 222.844C111.289 221.416 109.943 220.216 108.4 219.316C106.943 218.385 105.284 217.816 103.562 217.657C103.058 217.632 103.058 218.388 103.562 218.413V218.393Z" fill="#263238"/>
<path d="M84.546 124.947C84.546 124.947 72.7726 124.725 64.2953 117.795C57.2847 112.054 54.7193 109.227 53.1771 110.638C51.6348 112.049 53.8978 135.183 72.3291 140.374C78.6039 142.133 84.546 130.798 84.546 130.798V124.947Z" fill="#224D8D"/>
<path opacity="0.1" d="M84.546 124.947C84.546 124.947 72.7726 124.725 64.2953 117.795C57.2847 112.054 54.7193 109.227 53.1771 110.638C51.6348 112.049 53.8978 135.183 72.3291 140.374C78.6039 142.133 84.546 130.798 84.546 130.798V124.947Z" fill="black"/>
<path opacity="0.1" d="M84.546 124.947V130.783C84.546 130.783 78.624 142.128 72.329 140.359C67.7621 139.085 63.6744 136.488 60.5808 132.895C64.9858 130.017 71.6234 125.703 75.353 123.384C78.3439 124.27 81.4303 124.795 84.546 124.947Z" fill="black"/>
<path d="M71.2354 164.879C71.2354 164.879 64.0484 151.361 64.5423 144.759C65.0362 138.156 72.072 127.008 77.9184 124.206C83.7648 121.403 111.016 125.405 120.018 134.689C121.968 136.705 120.113 140.258 119.11 142.078C117.81 144.431 113.264 149.733 109.323 151.271C109.323 151.271 110.028 159.037 101.763 163.251C101.763 163.251 104.57 176.455 107.13 183.637C109.691 190.819 115.88 202.789 112.08 211.458C108.279 220.127 98.7185 219.467 92.4236 220.374C86.1286 221.281 75.6 227.39 66.276 226.069C56.952 224.749 53.2476 214.397 55.8735 203.112C58.7664 190.739 63.6401 175.694 71.2354 164.879Z" fill="#224D8D"/>
<path d="M73.1355 136.176C73.1355 136.176 69.6075 135.843 62.7883 133.091C55.9692 130.339 44.6947 123.092 33.7327 128.908C21.0723 135.621 16.8437 166.058 40.9954 175.468C61.8307 183.582 76.6584 152.788 76.6584 152.788L73.1355 136.176Z" fill="#224D8D"/>
<path opacity="0.1" d="M76.6534 152.798C76.6534 152.798 61.8307 183.582 40.9954 175.478C35.5522 173.361 31.5504 170.171 28.7633 166.406C26.2188 162.071 24.6839 157.218 24.2727 152.208C23.8543 146.236 24.7767 137.592 32.5231 132.809C40.2696 128.026 50.1883 132.552 57.96 136.75C65.7317 140.949 72.6567 141.286 74.4156 142.163C78.2359 145.918 76.6534 152.798 76.6534 152.798Z" fill="black"/>
<path d="M57.96 130.929L61.7098 132.401C62.9647 132.88 64.2298 133.373 65.4696 133.832C66.7095 134.291 67.9896 134.744 69.2597 135.153C69.8947 135.369 70.5348 135.546 71.185 135.722C71.5075 135.803 71.8301 135.894 72.1577 135.969C72.4853 136.045 72.8129 136.1 73.1657 136.176C71.8156 136.103 70.4773 135.885 69.174 135.526C67.8656 135.191 66.5767 134.784 65.3134 134.306C64.0483 133.832 62.7934 133.298 61.5787 132.754C60.3641 132.209 59.1142 131.599 57.96 130.929Z" fill="#263238"/>
<path d="M69.552 163.825L70.4592 162.449L71.3765 161.088L73.1959 158.362C73.8007 157.45 74.3854 156.532 74.9751 155.61C75.2623 155.146 75.5597 154.688 75.8268 154.209C76.0939 153.73 76.3762 153.266 76.6685 152.793C76.2907 153.832 75.8375 154.843 75.3127 155.817C74.8087 156.789 74.214 157.727 73.6142 158.649C73.0145 159.571 72.3694 160.464 71.689 161.325C71.0203 162.195 70.307 163.029 69.552 163.825V163.825Z" fill="#263238"/>
<path d="M70.0812 135.576C70.2615 135.455 70.4609 135.364 70.6709 135.309C71.2943 135.121 71.9612 135.135 72.576 135.349C72.3593 135.374 72.1527 135.374 71.946 135.395L71.3261 135.44C70.9128 135.45 70.5046 135.5 70.0812 135.576Z" fill="#263238"/>
<path d="M75.1263 155.736C75.4121 155.392 75.722 155.068 76.0536 154.768C76.3762 154.466 76.6836 154.189 77.0163 153.856C76.9221 154.319 76.6733 154.737 76.3107 155.04C75.9779 155.365 75.5715 155.603 75.1263 155.736Z" fill="#263238"/>
<path d="M75.1262 146.876L71.4874 146.745C70.2727 146.704 69.0581 146.664 67.8485 146.649C65.4242 146.614 62.995 146.573 60.5858 146.755C58.1767 146.936 55.9087 147.788 53.6962 148.735C52.5874 149.209 51.4987 149.743 50.4302 150.313C49.3618 150.882 48.2933 151.467 47.25 152.087C49.233 150.671 51.336 149.432 53.5349 148.383C55.7323 147.272 58.1063 146.552 60.5506 146.256C62.9849 146.127 65.4243 146.127 67.8586 146.256C70.2878 146.387 72.7121 146.578 75.1262 146.876Z" fill="#263238"/>
<path d="M73.1355 147.758C71.6537 148.045 70.177 148.337 68.7103 148.665C67.2437 148.992 65.7871 149.355 64.3659 149.814C63.6582 150.036 62.9661 150.306 62.2944 150.62C61.6275 150.943 60.9856 151.316 60.3742 151.734C59.7578 152.156 59.1748 152.624 58.6303 153.135C58.0833 153.642 57.5777 154.191 57.1183 154.778C57.9122 153.484 58.9372 152.346 60.1423 151.422C60.7508 150.954 61.4002 150.543 62.0827 150.192C62.7709 149.857 63.4816 149.571 64.2096 149.335C65.658 148.881 67.1367 148.531 68.6347 148.287C70.1237 148.025 71.6264 147.848 73.1355 147.758Z" fill="#263238"/>
<path d="M113.506 154.501C113.394 152.292 114.028 150.108 115.305 148.302C115.597 147.909 114.937 147.531 114.655 147.919C113.953 148.893 113.44 149.991 113.143 151.155C112.849 152.245 112.716 153.372 112.75 154.501C112.78 155.005 113.536 155.005 113.506 154.501Z" fill="#263238"/>
<path d="M114.121 155.03C114.379 153.982 114.899 153.016 115.633 152.223C116.47 151.254 117.5 150.469 118.657 149.92C119.095 149.718 118.712 149.068 118.274 149.265C117.913 149.439 117.566 149.639 117.235 149.864C116.424 150.396 115.688 151.036 115.048 151.765C114.252 152.632 113.685 153.686 113.4 154.829C113.309 155.308 114.035 155.509 114.126 155.03H114.121Z" fill="#263238"/>
<path d="M114.408 155.681C114.866 154.877 115.513 154.197 116.293 153.7C117.268 153.001 118.426 152.6 119.624 152.546C119.725 152.546 119.821 152.506 119.892 152.435C119.963 152.364 120.002 152.268 120.002 152.168C120.002 152.067 119.963 151.971 119.892 151.9C119.821 151.829 119.725 151.79 119.624 151.79C118.29 151.841 117 152.279 115.91 153.05C115.019 153.613 114.279 154.384 113.753 155.297C113.536 155.731 114.186 156.114 114.408 155.681V155.681Z" fill="#263238"/>
<path d="M91.1887 167.066C91.1887 167.066 104.046 169.198 112.594 154.244C112.594 154.244 114.443 153.186 114.892 155.202C114.892 155.202 115.865 169.954 107.145 176.597C98.2951 183.335 87.9531 181.259 87.9531 181.259C87.9531 181.259 81.4011 172.318 91.1887 167.066Z" fill="#224D8D"/>
<path d="M102.05 164.879C100.914 165.762 99.6059 166.397 98.2095 166.743C97.5165 166.924 96.8104 167.051 96.0977 167.121C95.3852 167.187 94.6682 167.187 93.9557 167.121L96.0372 166.718C96.7227 166.582 97.4031 166.416 98.0532 166.239C98.7034 166.063 99.3939 165.856 100.069 165.635C100.745 165.413 101.4 165.176 102.05 164.879Z" fill="#263238"/>
<path d="M87.9531 181.259C88.7889 181.368 89.6302 181.43 90.4731 181.445C91.3198 181.445 92.1564 181.445 92.9931 181.4C94.6683 181.298 96.3312 181.048 97.9625 180.654C99.5957 180.273 101.188 179.733 102.715 179.041C104.253 178.349 105.731 177.531 107.135 176.597C106.803 176.859 106.47 177.101 106.127 177.378C105.805 177.645 105.469 177.894 105.119 178.124L104.031 178.794C103.673 179.026 103.275 179.192 102.902 179.394C102.14 179.778 101.356 180.115 100.553 180.402C100.155 180.553 99.7416 180.659 99.3334 180.79L98.7235 180.981L98.0986 181.128C96.438 181.531 94.7371 181.746 93.0283 181.768C91.3216 181.822 89.6151 181.651 87.9531 181.259V181.259Z" fill="#263238"/>
<path d="M89.208 182.04C89.4511 182.034 89.6935 182.012 89.9338 181.974C90.1757 181.939 90.4378 181.914 90.6444 181.873C91.1182 181.808 91.5718 181.727 92.0707 181.611C91.7037 181.967 91.2284 182.191 90.72 182.246C90.4672 182.277 90.2117 182.277 89.959 182.246C89.6953 182.242 89.437 182.171 89.208 182.04V182.04Z" fill="#263238"/>
<path d="M98.9252 142.768C98.8395 142.713 98.8496 142.995 98.9252 143.065C100.876 144.809 102.766 147.128 101.501 149.391C101.489 149.407 101.485 149.428 101.489 149.448C101.493 149.468 101.504 149.485 101.521 149.496C101.537 149.508 101.558 149.512 101.578 149.508C101.598 149.505 101.615 149.493 101.627 149.476C103.638 147.168 101.097 144.114 98.9252 142.768Z" fill="#263238"/>
<path d="M95.4979 142.854C91.9951 145.787 97.2871 151.588 100.538 148.866C103.789 146.145 98.4363 140.394 95.4979 142.854Z" fill="#263238"/>
<path d="M87.8926 145.868C87.4387 145.229 87.1275 144.5 86.9803 143.731C86.8156 142.949 86.8019 142.143 86.94 141.357C87.0823 140.557 87.4161 139.803 87.9127 139.159C88.3935 138.527 89.036 138.036 89.7725 137.738C89.3189 138.315 88.9191 138.933 88.578 139.583C88.2665 140.2 88.0491 140.861 87.9329 141.543C87.8117 142.237 87.7543 142.941 87.7615 143.645C87.7716 144.366 87.817 145.097 87.8926 145.868Z" fill="#263238"/>
<path d="M87.5146 145.918C86.9403 145.385 86.4866 144.736 86.184 144.013C85.8605 143.283 85.6808 142.498 85.6548 141.7C85.6286 140.886 85.8016 140.078 86.1588 139.346C86.4939 138.629 87.0163 138.016 87.6708 137.572C87.3458 138.224 87.0842 138.906 86.8896 139.608C86.7139 140.277 86.6375 140.968 86.6628 141.659C86.6852 142.363 86.7746 143.064 86.9299 143.751C87.0862 144.472 87.2878 145.177 87.5146 145.918Z" fill="#263238"/>
<path opacity="0.5" d="M107.559 216.906C103.023 219.875 96.9092 219.729 92.4387 220.374C87.9682 221.019 81.4465 224.245 74.6828 225.621C74.582 220.172 75.086 208.485 80.2268 197.397C86.8897 183.033 96.3548 178.602 99.4342 190.063C101.808 198.924 102.075 206.877 107.559 216.906Z" fill="white"/>
<path d="M101.773 163.251C100.366 163.879 98.8724 164.294 97.3426 164.48C95.8054 164.682 94.2472 164.662 92.7159 164.42C91.9496 164.302 91.1919 164.134 90.4479 163.916C89.7121 163.674 88.996 163.376 88.3059 163.024C87.96 162.859 87.6235 162.676 87.2979 162.474L86.3302 161.839C86.0104 161.624 85.7072 161.385 85.423 161.124C85.1307 160.877 84.8434 160.62 84.5561 160.373C85.7757 161.279 87.0905 162.05 88.4772 162.671C89.1668 162.978 89.8756 163.241 90.5991 163.457C91.3221 163.663 92.0579 163.821 92.8015 163.931C94.2931 164.166 95.807 164.225 97.3123 164.107L98.4413 163.986C98.8143 163.926 99.1923 163.876 99.5652 163.8C100.312 163.664 101.049 163.48 101.773 163.251Z" fill="#263238"/>
<path d="M120.814 137.753C120.814 137.753 115.824 138.071 115.824 136.564C115.824 135.868 119.635 133.54 121.01 133.54C122.386 133.54 120.814 137.753 120.814 137.753Z" fill="#263238"/>
<path d="M97.5492 157.389C99.5422 157.389 101.158 155.773 101.158 153.78C101.158 151.787 99.5422 150.172 97.5492 150.172C95.5562 150.172 93.9406 151.787 93.9406 153.78C93.9406 155.773 95.5562 157.389 97.5492 157.389Z" fill="#FF9BBC"/>
<path d="M128.802 219.507C128.802 218.802 130.113 217.914 130.476 217.693C130.838 217.471 132.492 217.36 132.602 217.078C132.713 216.796 134.306 216.463 134.891 216.493C135.475 216.523 136.261 217.552 136.372 218.363C136.427 218.756 136.338 219.156 136.123 219.489C135.907 219.822 135.579 220.066 135.198 220.177C134.472 220.319 133.147 220.989 132.592 221.044C132.038 221.1 128.802 220.293 128.802 219.507Z" fill="#224D8D"/>
<path opacity="0.3" d="M128.802 219.507C128.802 218.802 130.113 217.914 130.476 217.693C130.838 217.471 132.492 217.36 132.602 217.078C132.713 216.796 134.306 216.463 134.891 216.493C135.475 216.523 136.261 217.552 136.372 218.363C136.427 218.756 136.338 219.156 136.123 219.489C135.907 219.822 135.579 220.066 135.198 220.177C134.472 220.319 133.147 220.989 132.592 221.044C132.038 221.1 128.802 220.293 128.802 219.507Z" fill="white"/>
<path d="M123.137 217.093C122.774 216.589 123.596 216.201 124.004 215.611C124.412 215.022 125.783 215.258 126.045 215.445C126.387 215.922 126.541 216.509 126.479 217.093C126.094 217.64 125.512 218.016 124.856 218.141C124.397 218.141 123.364 217.395 123.137 217.093Z" fill="#224D8D"/>
<path opacity="0.3" d="M123.137 217.093C122.774 216.589 123.596 216.201 124.004 215.611C124.412 215.022 125.783 215.258 126.045 215.445C126.387 215.922 126.541 216.509 126.479 217.093C126.094 217.64 125.512 218.016 124.856 218.141C124.397 218.141 123.364 217.395 123.137 217.093Z" fill="white"/>
<path d="M129.578 216.115C129.674 215.314 131.237 215.546 131.484 215.979C131.73 216.413 130.828 217.259 130.42 216.907C130.012 216.554 129.528 216.413 129.578 216.115Z" fill="#224D8D"/>
<path opacity="0.3" d="M129.578 216.115C129.674 215.314 131.237 215.546 131.484 215.979C131.73 216.413 130.828 217.259 130.42 216.907C130.012 216.554 129.528 216.413 129.578 216.115Z" fill="white"/>
<path d="M123.984 220.807C124.236 220.495 124.992 220.424 125.108 220.606C125.224 220.787 125.471 221.15 125.289 221.296C125.108 221.442 124.599 221.77 124.367 221.589C124.135 221.407 123.863 220.974 123.984 220.807Z" fill="#224D8D"/>
<path opacity="0.3" d="M123.984 220.807C124.236 220.495 124.992 220.424 125.108 220.606C125.224 220.787 125.471 221.15 125.289 221.296C125.108 221.442 124.599 221.77 124.367 221.589C124.135 221.407 123.863 220.974 123.984 220.807Z" fill="white"/>
<path d="M118.868 218.348C119.015 217.844 119.74 217.511 120.204 217.456C120.668 217.4 121.53 217.783 121.479 218.111C121.429 218.439 120.774 218.726 120.663 218.963C120.552 219.2 120.209 219.709 119.866 219.573C119.524 219.437 118.702 218.907 118.868 218.348Z" fill="#224D8D"/>
<path opacity="0.3" d="M118.868 218.348C119.015 217.844 119.74 217.511 120.204 217.456C120.668 217.4 121.53 217.783 121.479 218.111C121.429 218.439 120.774 218.726 120.663 218.963C120.552 219.2 120.209 219.709 119.866 219.573C119.524 219.437 118.702 218.907 118.868 218.348Z" fill="white"/>
</svg>
