<svg width="46" height="46" viewBox="0 0 46 46" fill="none" xmlns="http://www.w3.org/2000/svg">
<path d="M23 0C10.2994 0 0 10.2994 0 23C0 35.7006 10.2994 46 23 46C35.7006 46 46 35.7006 46 23C46 10.2994 35.7006 0 23 0ZM23.4875 36.3913C23.4871 36.3913 23.4878 36.3913 23.4875 36.3913H23.4819C21.1779 36.3902 18.9139 35.8126 16.9033 34.7162L9.60591 36.6299L11.559 29.4986C10.3541 27.4118 9.72032 25.0443 9.72137 22.6189C9.72453 15.0313 15.8999 8.85838 23.4875 8.85838C27.1697 8.85979 30.6262 10.2931 33.225 12.894C35.8241 15.4952 37.2546 18.9528 37.2532 22.6297C37.2501 30.2177 31.074 36.3913 23.4875 36.3913Z" fill="#0A9452"/>
<path d="M23.4921 11.1827C17.1809 11.1827 12.0482 16.3133 12.0454 22.6199C12.0447 24.7811 12.6498 26.8857 13.7949 28.7068L14.0669 29.1396L12.9109 33.3605L17.2413 32.2248L17.6592 32.4725C19.4158 33.5149 21.4295 34.0662 23.4826 34.0669H23.4872C29.7934 34.0669 34.9261 28.936 34.9289 22.629C34.93 19.5726 33.7409 16.699 31.5808 14.5371C29.4207 12.3753 26.5478 11.1838 23.4921 11.1827ZM30.2219 27.5375C29.9352 28.3404 28.5612 29.0736 27.9004 29.1725C27.3076 29.261 26.558 29.2978 25.734 29.0364C25.2342 28.8777 24.5937 28.6661 23.7728 28.312C20.3226 26.8226 18.0692 23.3495 17.8972 23.12C17.7252 22.8905 16.4927 21.2554 16.4927 19.5628C16.4927 17.8705 17.3813 17.0384 17.6964 16.6944C18.012 16.3502 18.3847 16.2642 18.6138 16.2642C18.843 16.2642 19.0725 16.2663 19.2729 16.2761C19.4842 16.2866 19.7678 16.1957 20.0468 16.8664C20.3335 17.555 21.0214 19.2473 21.1074 19.4192C21.1933 19.5916 21.2505 19.7923 21.1361 20.0218C21.0214 20.2513 20.6402 20.7465 20.2763 21.1979C20.1236 21.387 19.9246 21.5555 20.1254 21.8998C20.3258 22.2437 21.0165 23.3699 22.0388 24.2817C23.3527 25.4532 24.4611 25.816 24.805 25.9884C25.1486 26.1603 25.3493 26.1315 25.5501 25.9024C25.7505 25.6729 26.4099 24.8983 26.6391 24.554C26.8682 24.2097 27.0978 24.2673 27.4129 24.382C27.7284 24.4965 29.4193 25.3286 29.7632 25.5005C30.1072 25.6729 30.3363 25.7588 30.4223 25.9024C30.5087 26.0459 30.5087 26.7341 30.2219 27.5375Z" fill="#0A9452"/>
</svg>
