<svg width="46" height="46" viewBox="0 0 46 46" fill="none" xmlns="http://www.w3.org/2000/svg">
<path d="M20.1352 27.309L27.6168 23L20.1352 18.691V27.309Z" fill="#CC3636"/>
<path d="M23 0C10.2994 0 0 10.2994 0 23C0 35.7006 10.2994 46 23 46C35.7006 46 46 35.7006 46 23C46 10.2994 35.7006 0 23 0ZM37.3715 23.0235C37.3715 23.0235 37.3715 27.688 36.7798 29.9373C36.4481 31.1684 35.4774 32.1391 34.2463 32.4704C31.997 33.0625 23 33.0625 23 33.0625C23 33.0625 14.0265 33.0625 11.7537 32.4469C10.5226 32.1156 9.55186 31.1445 9.22021 29.9134C8.62816 27.688 8.62816 23 8.62816 23C8.62816 23 8.62816 18.3358 9.22021 16.0866C9.55151 14.8555 10.5461 13.8609 11.7537 13.5296C14.003 12.9375 23 12.9375 23 12.9375C23 12.9375 31.997 12.9375 34.2463 13.5531C35.4774 13.8844 36.4481 14.8555 36.7798 16.0866C37.3954 18.3358 37.3715 23.0235 37.3715 23.0235Z" fill="#CC3636"/>
</svg>
